<svg width="20" height="20" viewBox="0 0 20 20" fill="none" xmlns="http://www.w3.org/2000/svg">
<path d="M12.4252 13.5748C12.5006 13.6503 12.5902 13.7103 12.6889 13.7512C12.7875 13.792 12.8932 13.8131 13 13.8131C13.1068 13.8131 13.2125 13.792 13.3111 13.7512C13.4098 13.7103 13.4994 13.6503 13.5748 13.5748L7.8125 8.87282V8.96122M12.4252 13.5748L12.4694 13.5306L12.4252 13.5748L12.4252 13.5748ZM12.4252 13.5748L7.8125 8.96122M7.8125 8.96122L7.75 8.89871V11.5C7.75 11.6989 7.67098 11.8897 7.53033 12.0303C7.38967 12.171 7.19891 12.25 7 12.25C6.80108 12.25 6.61032 12.171 6.46967 12.0303C6.32901 11.8897 6.25 11.6989 6.25 11.5V7C6.25 6.80109 6.32901 6.61032 6.46967 6.46967C6.61032 6.32902 6.80108 6.25 7 6.25H11.5C11.6989 6.25 11.8897 6.32902 12.0303 6.46967C12.171 6.61032 12.25 6.80109 12.25 7C12.25 7.19891 12.171 7.38968 12.0303 7.53033C11.8897 7.67098 11.6989 7.75 11.5 7.75H8.89871L8.96122 7.8125M7.8125 8.96122V11.5C7.8125 11.7155 7.72689 11.9222 7.57452 12.0745C7.42215 12.2269 7.21548 12.3125 7 12.3125C6.78451 12.3125 6.57785 12.2269 6.42547 12.0745C6.2731 11.9222 6.1875 11.7155 6.1875 11.5V7C6.1875 6.78451 6.2731 6.57785 6.42547 6.42548C6.57785 6.2731 6.78451 6.1875 7 6.1875H11.5C11.7155 6.1875 11.9221 6.2731 12.0745 6.42548C12.2269 6.57785 12.3125 6.78451 12.3125 7C12.3125 7.21549 12.2269 7.42215 12.0745 7.57452C11.9221 7.7269 11.7155 7.8125 11.5 7.8125H8.96122M8.96122 7.8125H8.87282L13.5306 13.5306C13.6004 13.461 13.6557 13.3783 13.6934 13.2872C13.7312 13.1962 13.7506 13.0986 13.7506 13C13.7506 12.9014 13.7312 12.8038 13.6934 12.7128C13.6557 12.6217 13.6004 12.539 13.5306 12.4694L13.5748 12.4252L13.5748 12.4252L8.96122 7.8125ZM4.61791 1.94514C6.211 0.880668 8.08397 0.312507 9.99996 0.3125C12.5684 0.315221 15.0309 1.33674 16.8471 3.15292C18.6633 4.9691 19.6848 7.4316 19.6875 10.0001C19.6875 11.916 19.1193 13.789 18.0549 15.3821C16.9904 16.9752 15.4774 18.2169 13.7072 18.9501C11.9371 19.6833 9.98925 19.8752 8.11006 19.5014C6.23087 19.1276 4.50472 18.2049 3.1499 16.8501C1.79508 15.4953 0.872434 13.7691 0.498639 11.8899C0.124845 10.0107 0.31669 8.06291 1.04991 6.29275C1.78314 4.52259 3.02481 3.00961 4.61791 1.94514Z" fill="#F6F7F6" stroke="#F6F7F6" stroke-width="0.125"/>
</svg>
