<svg width="56" height="48" viewBox="0 0 56 48" fill="none" xmlns="http://www.w3.org/2000/svg">
<path d="M25.3766 0L35.5631 17.7492H15.1901L25.3766 0Z" fill="white"/>
<path d="M35.4854 4.93896L42.8166 17.7493H28.1543L35.4854 4.93896Z" fill="white"/>
<path d="M21.821 20.373C23.798 20.373 25.6261 21.4235 26.6215 23.1316L28.8927 27.0285L31.1639 23.1316C32.1593 21.4235 33.9874 20.373 35.9644 20.373H44.5789L55.164 41.3634H0.835989L13.4615 20.373H21.821Z" fill="white"/>
<path d="M22.4442 41.3633C24.0676 41.3633 25.5692 42.2292 26.3889 43.6382L28.9265 47.9999L31.464 43.6382C32.2837 42.2292 33.7853 41.3633 35.4088 41.3633H22.4442Z" fill="white"/>
</svg>
