<svg width="52" height="46" viewBox="0 0 52 46" fill="none" xmlns="http://www.w3.org/2000/svg">
<path d="M23.4886 0.0284119L33.2386 17.017H13.7386L23.4886 0.0284119Z" fill="#C3E956"/>
<path d="M33.1648 4.75568L40.1819 17.017H26.1478L33.1648 4.75568Z" fill="#C3E956"/>
<path d="M20.0858 19.5284C21.9781 19.5284 23.7278 20.5339 24.6806 22.1687L26.8545 25.8987L29.0283 22.1687C29.9811 20.5339 31.7309 19.5284 33.6231 19.5284H41.8685L52 39.6193H0L12.0845 19.5284H20.0858Z" fill="#33758B"/>
<path d="M20.6818 39.6194C22.2357 39.6194 23.673 40.4482 24.4575 41.7967L26.8864 45.9716L29.3152 41.7967C30.0997 40.4482 31.537 39.6194 33.0909 39.6194H20.6818Z" fill="#33758B"/>
</svg>
