<svg width="32" height="32" viewBox="0 0 32 32" fill="none" xmlns="http://www.w3.org/2000/svg">
<path d="M28.61 3.27352C28.4551 3.13973 28.2666 3.05075 28.0648 3.01617C27.863 2.98159 27.6557 3.00271 27.465 3.07727L2.13251 12.991C1.77349 13.1306 1.46954 13.3831 1.26642 13.7104C1.06329 14.0377 0.97199 14.4221 1.00625 14.8058C1.04052 15.1895 1.1985 15.5516 1.4564 15.8378C1.71431 16.1239 2.05819 16.3185 2.43626 16.3923L9.00001 17.681V24.9998C8.99872 25.3984 9.11719 25.7883 9.34006 26.1188C9.56294 26.4493 9.87995 26.7053 10.25 26.8535C10.6195 27.0044 11.0258 27.0406 11.4162 26.9575C11.8065 26.8743 12.1628 26.6756 12.4388 26.3873L15.6038 23.1048L20.625 27.4998C20.9873 27.8211 21.4545 27.9989 21.9388 27.9998C22.151 27.9996 22.3618 27.9663 22.5638 27.901C22.8937 27.7963 23.1904 27.607 23.4245 27.352C23.6585 27.0969 23.8216 26.785 23.8975 26.4473L28.9713 4.37477C29.0166 4.17571 29.007 3.96805 28.9434 3.77405C28.8797 3.58005 28.7645 3.40702 28.61 3.27352ZM21.9413 25.9998L11.6063 16.9373L26.4813 6.27602L21.9413 25.9998Z" fill="white"/>
</svg>
